<?xml version="1.0" encoding="UTF-8"?>
<svg width="109px" height="16px" viewBox="0 0 109 16" version="1.1" xmlns="http://www.w3.org/2000/svg" xmlns:xlink="http://www.w3.org/1999/xlink">
    <!-- Generator: Sketch 53.2 (72643) - https://sketchapp.com -->
    <title>Formlabs Logo</title>
    <desc>Created with Sketch.</desc>
    <g id="V3" stroke="none" stroke-width="1" fill="none" fill-rule="evenodd">
        <g id="Formlabs-Logo" fill="#000000">
            <g transform="translate(0.655147, 0.000000)" id="Shape">
                <path d="M8.34048492,2.34004598 C8.32005791,2.48114023 8.25877686,2.58192184 8.09506252,2.58192184 C8.05420849,2.58192184 8.01335446,2.58192184 7.91107028,2.56176552 C7.66579698,2.52145287 7.17510128,2.44082759 6.7049817,2.44082759 C6.23486213,2.44082759 5.94858569,2.50129655 5.74431553,2.66269425 C5.56032328,2.82409195 5.49889313,3.08627126 5.49889313,3.46938851 L5.49889313,4.57886897 L7.97250043,4.57886897 C8.15649268,4.57886897 8.29948179,4.6998069 8.29948179,4.88150805 L8.29948179,6.75737011 C8.29948179,6.93892414 8.15649268,7.03985287 7.97250043,7.03985287 L5.49889313,7.03985287 L5.49889313,14.8660966 C5.49889313,15.0476506 5.35590402,15.1687356 5.15133565,15.1687356 L2.26918803,15.1687356 C2.06476877,15.1687356 1.92163055,15.0477977 1.92163055,14.8660966 L1.92163055,7.03985287 L0.347557481,7.03985287 C0.143138216,7.03985287 -1.60018922e-15,6.93892414 -1.60018922e-15,6.75737011 L-1.60018922e-15,4.88150805 C-1.60018922e-15,4.69995402 0.143138216,4.57886897 0.347557481,4.57886897 L1.92163055,4.57886897 L1.92163055,3.3079908 C1.92163055,1.10948046 3.06628897,-1.57898386e-15 5.53989627,-1.57898386e-15 C7.13439635,-1.57898386e-15 8.05420849,0.242170115 8.36091194,0.342951724 C8.56533121,0.40342069 8.60618524,0.585121839 8.58575822,0.685903448 L8.34048492,2.34004598 L8.34048492,2.34004598 Z"></path>
                <path d="M14.0775317,15.780892 C9.37588863,15.780892 8.78305785,13.3603678 8.78305785,10.233931 C8.78305785,7.10734713 9.37588863,4.66666667 14.0775317,4.66666667 C18.7791748,4.66666667 19.3924326,7.10734713 19.3924326,10.233931 C19.3925817,13.3602207 18.7793239,15.780892 14.0775317,15.780892 L14.0775317,15.780892 Z M14.0775317,6.98626207 C12.4831807,6.98626207 12.4013236,7.91418851 12.4013236,10.2337839 C12.4013236,12.533223 12.4831807,13.4611494 14.0775317,13.4611494 C15.6924588,13.4611494 15.753889,12.533223 15.753889,10.2337839 C15.753889,7.91418851 15.6924588,6.98626207 14.0775317,6.98626207 L14.0775317,6.98626207 Z"></path>
                <path d="M26.8313704,7.20827586 C25.686712,7.20827586 24.6848936,7.32921379 24.5010504,7.36967356 L24.5010504,15.175908 C24.5010504,15.3574621 24.3784883,15.4785471 24.1740691,15.4785471 L21.2713453,15.4785471 C21.0873531,15.4785471 20.9442149,15.3576092 20.9442149,15.175908 L20.9442149,6.24003678 C20.9442149,5.51382069 21.5983267,5.29210115 22.8045644,5.02977471 C23.7858067,4.82806437 25.1553114,4.66666667 26.4228301,4.66666667 L26.7703876,4.66666667 C26.9543798,4.66666667 27.0565149,4.70683218 27.1383721,4.7876046 C27.1998022,4.84807356 27.2406563,4.9490023 27.2406563,5.11025287 L27.2406563,6.74409195 C27.2402089,6.98655632 27.2402089,7.20827586 26.8313704,7.20827586 L26.8313704,7.20827586 Z"></path>
                <path d="M44.6887202,15.5185655 L41.7859965,15.5185655 C41.5815772,15.5185655 41.458866,15.3976276 41.458866,15.2159264 L41.458866,8.35777471 C41.458866,7.28875402 40.9068893,6.9458023 40.1097883,6.9458023 C39.4556765,6.9458023 38.6788535,7.08704368 38.4948612,7.1272092 L38.4948612,15.2159264 C38.4948612,15.3974805 38.3518721,15.5185655 38.1473037,15.5185655 L35.24458,15.5185655 C35.0401607,15.5185655 34.9174495,15.3976276 34.9174495,15.2159264 L34.9174495,8.35777471 C34.9174495,7.28875402 34.44733,6.9458023 33.6500799,6.9458023 C33.0163951,6.9458023 32.1372879,7.08704368 31.9328686,7.1272092 L31.9328686,15.2159264 C31.9328686,15.3974805 31.8103065,15.5185655 31.6058873,15.5185655 L28.7031635,15.5185655 C28.4987443,15.5185655 28.3760331,15.3976276 28.3760331,15.2159264 L28.3760331,6.30035862 C28.3760331,5.55413333 29.009867,5.33226667 30.2566605,5.07008736 C31.2583298,4.86837701 32.8119758,4.66666667 34.0997725,4.66666667 C35.3875691,4.66666667 36.2666763,4.96930575 36.8390801,5.33226667 C37.2274916,5.19102529 38.9649808,4.66666667 40.7026191,4.66666667 C43.3192155,4.66666667 45.0158507,5.23148506 45.0158507,7.85371954 L45.0158507,15.2160736 C45.0158507,15.3976276 44.8931395,15.5185655 44.6887202,15.5185655 L44.6887202,15.5185655 Z"></path>
                <path d="M50.9525082,14.9345185 C50.9525082,15.0757599 50.8708001,15.0959162 50.7889429,15.1362289 C50.5640967,15.2371576 50.0735501,15.378399 49.3375811,15.378399 C48.1110655,15.378399 47.2933884,14.7934243 47.2933884,13.3008266 L47.2933884,0.592927737 C47.2933884,0.431382909 47.3956726,0.330748426 47.5386617,0.290288656 L48.6424661,0.0078058975 C48.7856043,-0.0325067462 48.9081664,0.0885783113 48.9081664,0.249976012 L48.9081664,13.2603668 C48.9081664,13.9865829 49.4192891,14.0873645 49.8279786,14.0873645 C50.1141059,14.0873645 50.4003823,14.0470519 50.5435205,14.0065921 L50.6252286,13.9864358 C50.6865097,13.9864358 50.7683668,14.0065921 50.7887938,14.1276772 L50.9319321,14.8134335 C50.9525082,14.8942059 50.9525082,14.9143622 50.9525082,14.9345185 L50.9525082,14.9345185 Z"></path>
                <path d="M58.6856249,15.4781057 C58.0927941,15.6193471 57.1115518,15.7807448 56.0283235,15.7807448 C54.2702582,15.7807448 51.3471074,15.7202759 51.3471074,12.4525977 C51.3471074,9.78990345 52.7984693,9.60849655 54.8836651,9.28570115 L58.7472041,8.66041379 L58.7472041,7.71247816 C58.7472041,7.06688736 58.726628,6.54252874 58.0112351,6.28034943 C57.6228236,6.11895172 57.0505689,6.03817931 56.1510347,6.03817931 C54.5769616,6.03817931 53.2277349,6.42144368 52.3692038,6.62330115 C52.1647845,6.66361379 52.0830764,6.64345747 52.0422224,6.48205977 L51.8582302,5.57428966 C51.8173761,5.39288276 52.0012193,5.31211034 52.0626494,5.29195402 C52.7167612,5.04978391 54.4748266,4.66666667 56.3348779,4.66666667 C57.7862397,4.66666667 58.726628,4.86837701 59.3194588,5.19117241 C60.3619821,5.73583448 60.3825582,6.68391724 60.3825582,7.63185287 L60.3825582,13.4209839 C60.3824091,14.8326621 60.0961327,15.1554575 58.6856249,15.4781057 L58.6856249,15.4781057 Z M58.767482,9.93114483 L54.7813809,10.596892 C53.8819958,10.7582897 53.0233156,10.899531 53.0233156,12.3718253 C53.0233156,14.3889287 54.6995237,14.5301701 56.0487505,14.5301701 C56.9481357,14.5301701 57.9091,14.4092322 58.767482,14.1267494 L58.767482,9.93114483 L58.767482,9.93114483 Z"></path>
                <path d="M64.3496115,4.88291802 C64.8992026,4.72902376 66.5083147,4.3285456 67.799988,4.3285456 C71.1934075,4.3285456 72.1337957,6.04300997 72.1337957,9.85549733 C72.1337957,13.7887755 71.0502693,15.4427709 67.3504446,15.4427709 C65.8990827,15.4427709 64.5702829,15.2007479 63.8957441,14.9788812 C62.8736478,14.6359295 62.8326446,14.1317272 62.8326446,13.3853548 L62.8326446,0.556665144 C62.8326446,0.395267443 62.9145018,0.334798478 63.078067,0.294485834 L64.1818714,0.0120030753 C64.3658637,-0.0484658902 64.4475717,0.133088133 64.4475717,0.25417319 L64.4475717,3.76387434 L64.3496115,4.88291802 Z M67.5341386,5.63973641 C66.4099072,5.63973641 64.8154071,6.02300078 64.4474226,6.12392951 L64.4474226,13.8089318 C64.6722689,13.8897042 65.7557954,14.1720399 67.3092923,14.1720399 C69.6601884,14.1720399 70.4572894,13.0828628 70.4572894,9.8959571 C70.4574385,6.64828813 69.8850347,5.63973641 67.5341386,5.63973641 L67.5341386,5.63973641 Z"></path>
                <path d="M76.7468453,15.7807448 C74.947926,15.7807448 73.394429,15.2362299 73.1285796,15.1353011 C73.0262954,15.0949885 72.9241604,15.0343724 72.9854414,14.8125057 L73.1692846,14.045977 C73.2102877,13.9048828 73.2715687,13.7837977 73.496415,13.8645701 C73.5576961,13.8847264 75.049912,14.4495448 76.7875503,14.4495448 C78.5250395,14.4495448 79.5267088,13.9050299 79.5267088,12.6746115 C79.5267088,11.0004598 78.2184851,11.0609287 76.6238359,10.8189057 C75.6221666,10.657508 73.0670004,10.475954 73.0670004,7.8134069 C73.0670004,5.21118161 75.4178965,4.66666667 77.2168158,4.66666667 C78.974732,4.66666667 80.3445349,5.02977471 80.5692321,5.09024368 C80.7123703,5.13055632 80.7736514,5.21118161 80.7530753,5.33241379 L80.6100862,6.24003678 C80.58951,6.36112184 80.528229,6.40143448 80.3850908,6.40143448 C80.0989634,6.36112184 78.5863205,6.01831724 77.3802319,6.01831724 C75.9084431,6.01831724 74.6817784,6.42173793 74.6817784,7.69246897 C74.6817784,9.06412874 76.0718592,9.22552644 77.3392288,9.38692414 C79.1790022,9.62909425 81.1619138,9.77018851 81.1619138,12.513508 C81.162212,15.1353011 79.1180194,15.7807448 76.7468453,15.7807448 L76.7468453,15.7807448 Z"></path>
                <path d="M108.041632,2.44064153 C107.808138,3.2190875 107.265853,3.82230589 106.833009,4.48481624 C105.758577,6.1296898 104.66193,7.76043923 103.574527,9.39722084 C103.551714,9.4315013 103.535015,9.4699013 103.506685,9.52257256 C103.868109,9.76650819 104.231471,9.9980852 104.577985,10.2526139 C104.724851,10.3606047 104.871419,10.4977266 104.956109,10.6542691 C105.16679,11.0443013 105.037966,11.4984806 104.68683,11.7853772 C103.440633,12.8037864 102.181762,13.8080714 100.959272,14.853699 C100.310677,15.4085128 99.5356434,15.0942507 99.3066222,14.4130553 C98.4322863,11.8127427 97.5227622,9.22405302 96.6259118,6.63124383 C96.6108525,6.58754727 96.5907237,6.54546911 96.5544918,6.45881164 C96.4866502,6.6466921 96.4314824,6.79396566 96.3803403,6.94271049 C95.5377632,9.38898176 94.6954842,11.835253 93.8533544,14.2816714 C93.8241303,14.3670047 93.7998267,14.4541036 93.7679188,14.538407 C93.5341263,15.1558967 92.8026304,15.3592254 92.2840526,14.9441818 C91.7718862,14.5342875 91.267473,14.11483 90.7591833,13.6997864 C90.0066639,13.0847978 89.2574248,12.4659841 88.5005815,11.8562921 C87.8889638,11.3629772 87.9144603,10.6769266 88.5700632,10.2365772 C88.9423717,9.98646222 89.3134873,9.73472888 89.7017497,9.4726967 C89.5554803,9.25524383 89.4189026,9.05014957 89.2799393,8.84667371 C87.9830474,6.94933118 86.691225,5.04904612 85.3861325,3.1572944 C84.9170566,2.47757026 85.0862878,1.36441164 85.9039648,0.952310492 C86.3544029,0.7252944 86.7820283,0.455023136 87.2253095,0.213882906 C87.7362831,-0.0641860599 88.2503878,-0.061537784 88.7543536,0.236687503 C91.2862599,1.73531739 93.8183153,3.23380015 96.3470905,4.7372852 C96.4960437,4.82600245 96.6019063,4.83438865 96.75742,4.74125762 C99.2717323,3.23747831 101.790368,1.74046681 104.308706,0.243308193 C104.847413,-0.0771331863 105.389698,-0.0812527265 105.93586,0.232126584 C106.352303,0.470912791 106.766509,0.714848423 107.194134,0.933184055 C107.637565,1.15946451 107.845861,1.54625992 108.002269,1.9796944 C108.018223,2.02397946 108.028958,2.06973578 108.042079,2.1149036 C108.041632,2.22348291 108.041632,2.33220934 108.041632,2.44064153 L108.041632,2.44064153 Z M106.649762,3.05651279 C106.641859,3.04518406 106.633957,3.03356107 106.626353,3.0220852 C103.65862,3.88218635 100.690888,4.7422875 97.6757412,5.61621854 C99.3825153,6.75277026 101.051417,7.86401624 102.734782,8.98482543 C104.048374,6.99552888 105.348844,5.0260944 106.649762,3.05651279 L106.649762,3.05651279 Z M95.4991457,5.60533118 C92.514863,4.73566681 89.5788894,3.87997946 86.6432141,3.02443923 C86.6362062,3.0365036 86.6293475,3.04856796 86.6223397,3.06077946 C87.950394,5.00417256 89.2782992,6.94741854 90.6152996,8.90390589 C92.2423039,7.80501854 93.8506705,6.71878406 95.4991457,5.60533118 L95.4991457,5.60533118 Z M92.9262362,14.1036484 C93.583181,12.1840898 94.2311796,10.2914553 94.8788801,8.39896796 C94.8147661,8.42456796 94.7771923,8.46311509 94.7460299,8.50592888 C94.1199493,9.36720704 93.494316,10.2290737 92.8685336,11.090499 C92.7832471,11.208053 92.7013899,11.3281082 92.6098411,11.4409542 C92.2153164,11.927207 91.4590695,11.9067565 91.0966018,11.3969634 C90.8446189,11.0429772 90.6030732,10.6819289 90.3452753,10.3069036 C89.9646171,10.5637864 89.5966326,10.8119887 89.2119486,11.0715197 C90.4562074,12.0872806 91.6782499,13.084945 92.9262362,14.1036484 L92.9262362,14.1036484 Z M86.366182,1.89745072 C88.5002833,2.52214957 90.5914432,3.1344898 92.6823049,3.74653578 C92.6647108,3.69504153 92.6371269,3.66458635 92.6032806,3.64457716 C91.1662326,2.79139095 89.7291845,1.93835187 88.2903473,1.08766681 C88.1251419,0.98997486 87.953376,1.00159785 87.7865306,1.09575877 C87.447621,1.28672888 87.107966,1.47652199 86.7692055,1.66719785 C86.6485817,1.73487601 86.5288526,1.80431969 86.366182,1.89745072 L86.366182,1.89745072 Z M93.8898844,7.96906451 C93.8778072,7.95714727 93.8657299,7.94523003 93.8536526,7.93331279 C92.9675376,8.53197026 92.0814225,9.13092199 91.182932,9.73796566 C91.4220921,10.0843013 91.644851,10.4069496 91.8777488,10.7443105 C92.5643649,9.79740474 93.2271247,8.88316107 93.8898844,7.96906451 L93.8898844,7.96906451 Z"></path>
            </g>
        </g>
    </g>
</svg>